<?xml version="1.0" encoding="UTF-8" standalone="no"?>
<!-- Created with Inkscape (http://www.inkscape.org/) -->

<svg
   xmlns:dc="http://purl.org/dc/elements/1.1/"
   xmlns:cc="http://creativecommons.org/ns#"
   xmlns:rdf="http://www.w3.org/1999/02/22-rdf-syntax-ns#"
   xmlns:svg="http://www.w3.org/2000/svg"
   xmlns="http://www.w3.org/2000/svg"
   version="1.1"
   width="783.17767"
   height="200"
   id="svg2"
   xml:space="preserve"><metadata
     id="metadata8"><rdf:RDF><cc:Work
         rdf:about=""><dc:format>image/svg+xml</dc:format><dc:type
           rdf:resource="http://purl.org/dc/dcmitype/StillImage" /><dc:title></dc:title></cc:Work></rdf:RDF></metadata><defs
     id="defs6"><clipPath
       id="clipPath16"><path
         d="m 75.364,359.197 181.174,0 0,31.748 -181.174,0 0,-31.748 z"
         id="path18" /></clipPath><clipPath
       id="clipPath300"><path
         d="m 75.364,359.197 181.171,0 0,31.748 -181.171,0 0,-31.748 z"
         id="path302" /></clipPath><clipPath
       id="clipPath316"><path
         d="m 75.364,359.197 181.174,0 0,31.748 -181.174,0 0,-31.748 z"
         id="path318" /></clipPath><clipPath
       id="clipPath332"><path
         d="m 72.44,164.198 184.098,0 0,31.747 -184.098,0 0,-31.747 z"
         id="path334" /></clipPath><clipPath
       id="clipPath570"><path
         d="m 72.44,164.198 184.094,0 0,31.747 -184.094,0 0,-31.747 z"
         id="path572" /></clipPath><clipPath
       id="clipPath586"><path
         d="m 72.44,164.198 184.098,0 0,31.747 -184.098,0 0,-31.747 z"
         id="path588" /></clipPath><clipPath
       id="clipPath602"><path
         d="m 101.358,619.197 155.18,0 0,31.748 -155.18,0 0,-31.748 z"
         id="path604" /></clipPath><clipPath
       id="clipPath808"><path
         d="m 142.348,489.198 114.19,0 0,31.747 -114.19,0 0,-31.747 z"
         id="path810" /></clipPath><clipPath
       id="clipPath822"><path
         d="m 142.343,489.198 114.195,0 0,31.747 -114.195,0 0,-31.747 z"
         id="path824" /></clipPath><clipPath
       id="clipPath888"><path
         d="m 142.348,489.198 114.19,0 0,31.747 -114.19,0 0,-31.747 z"
         id="path890" /></clipPath><clipPath
       id="clipPath904"><path
         d="m 142.343,489.198 114.195,0 0,31.747 -114.195,0 0,-31.747 z"
         id="path906" /></clipPath><clipPath
       id="clipPath1000"><path
         d="m 101.358,229.198 155.18,0 0,31.748 -155.18,0 0,-31.748 z"
         id="path1002" /></clipPath><clipPath
       id="clipPath1184"><path
         d="m 80.22,294.197 176.318,0 0,31.748 -176.318,0 0,-31.748 z"
         id="path1186" /></clipPath><clipPath
       id="clipPath1470"><path
         d="m 80.22,294.197 176.316,0 0,31.748 -176.316,0 0,-31.748 z"
         id="path1472" /></clipPath><clipPath
       id="clipPath1486"><path
         d="m 80.22,294.197 176.318,0 0,31.748 -176.318,0 0,-31.748 z"
         id="path1488" /></clipPath><clipPath
       id="clipPath1502"><path
         d="m 89.734,554.198 166.803,0 0,31.748 -166.803,0 0,-31.748 z"
         id="path1504" /></clipPath><clipPath
       id="clipPath1758"><path
         d="m 101.358,424.198 155.18,0 0,31.747 -155.18,0 0,-31.747 z"
         id="path1760" /></clipPath><clipPath
       id="clipPath1936"><path
         d="m 309.764,424.198 202.118,0 0,31.747 -202.118,0 0,-31.747 z"
         id="path1938" /></clipPath><clipPath
       id="clipPath2344"><path
         d="m 356.703,554.198 155.179,0 0,31.748 -155.179,0 0,-31.748 z"
         id="path2346" /></clipPath><clipPath
       id="clipPath2602"><path
         d="m 356.548,294.197 155.334,0 0,31.748 -155.334,0 0,-31.748 z"
         id="path2604" /></clipPath><clipPath
       id="clipPath2898"><path
         d="m 356.548,294.197 155.333,0 0,31.748 -155.333,0 0,-31.748 z"
         id="path2900" /></clipPath><clipPath
       id="clipPath2914"><path
         d="m 356.548,294.197 155.334,0 0,31.748 -155.334,0 0,-31.748 z"
         id="path2916" /></clipPath><clipPath
       id="clipPath2930"><path
         d="m 356.703,229.198 155.179,0 0,31.748 -155.179,0 0,-31.748 z"
         id="path2932" /></clipPath><clipPath
       id="clipPath3250"><path
         d="m 344.218,489.198 167.62,0 0,31.747 -167.62,0 0,-31.747 z"
         id="path3252" /></clipPath><clipPath
       id="clipPath3262"><path
         d="m 344.213,489.198 167.624,0 0,31.747 -167.624,0 0,-31.747 z"
         id="path3264" /></clipPath><clipPath
       id="clipPath3286"><path
         d="m 356.703,619.197 155.179,0 0,31.748 -155.179,0 0,-31.748 z"
         id="path3288" /></clipPath><clipPath
       id="clipPath3570"><path
         d="m 356.964,164.198 154.918,0 0,31.747 -154.918,0 0,-31.747 z"
         id="path3572" /></clipPath><clipPath
       id="clipPath3582"><path
         d="m 356.96,164.198 154.922,0 0,31.747 -154.922,0 0,-31.747 z"
         id="path3584" /></clipPath><clipPath
       id="clipPath3606"><path
         d="m 337.947,99.198 173.935,0 0,31.747 -173.935,0 0,-31.747 z"
         id="path3608" /></clipPath><clipPath
       id="clipPath3796"><path
         d="m 337.952,99.198 173.93,0 0,31.747 -173.93,0 0,-31.747 z"
         id="path3798" /></clipPath><clipPath
       id="clipPath3812"><path
         d="m 337.947,99.198 173.935,0 0,31.747 -173.935,0 0,-31.747 z"
         id="path3814" /></clipPath><clipPath
       id="clipPath3938"><path
         d="m 356.626,359.197 155.256,0 0,31.748 -155.256,0 0,-31.748 z"
         id="path3940" /></clipPath><clipPath
       id="clipPath4030"><path
         d="m 356.63,359.197 155.252,0 0,31.748 -155.252,0 0,-31.748 z"
         id="path4032" /></clipPath><clipPath
       id="clipPath4046"><path
         d="m 356.626,359.197 155.256,0 0,31.748 -155.256,0 0,-31.748 z"
         id="path4048" /></clipPath><clipPath
       id="clipPath4266"><path
         d="m 101.204,99.198 155.334,0 0,31.747 -155.334,0 0,-31.747 z"
         id="path4268" /></clipPath><clipPath
       id="clipPath4440"><path
         d="m 101.204,99.198 155.333,0 0,31.747 -155.333,0 0,-31.747 z"
         id="path4442" /></clipPath><clipPath
       id="clipPath4456"><path
         d="m 101.204,99.198 155.334,0 0,31.747 -155.334,0 0,-31.747 z"
         id="path4458" /></clipPath></defs><g
     transform="matrix(1.25,0,0,-1.25,-1577.7151,2772.9521)"
     id="g10"><g
       transform="matrix(3.7797657,0,0,3.7797657,-66.081281,-16.375426)"
       id="g14557"><g
         id="g13026"><path
           d="m 357.0109,585.0306 1.155,0 1.386,-4.109 0.014,0 1.344,4.109 1.176,0 0,-5.18 -0.847,0 0,3.864 -0.014,0 c -0.077,-0.357 -0.189,-0.693 -0.308,-1.057 l -1.008,-2.807 -0.777,0 -1.001,2.807 c -0.126,0.371 -0.203,0.595 -0.315,1.092 l -0.014,0 0,-3.899 -0.791,0 0,5.18 z"
           id="path2350"
           style="fill:#000000;fill-opacity:1;fill-rule:nonzero;stroke:none" /><path
           d="m 363.186,583.568 0.868,0 0,-3.717 -0.868,0 0,3.717 z m -0.008,1.393 0.882,0 0,-0.749 -0.882,0 0,0.749 z"
           id="path2352"
           style="fill:#000000;fill-opacity:1;fill-rule:nonzero;stroke:none" /><path
           d="m 365.0593,583.5676 0.868,0 0,-0.504 c 0.238,0.252 0.686,0.574 1.358,0.574 0.651,0 1.071,-0.385 1.071,-1.12 l 0,-2.667 -0.868,0 0,2.45 c 0,0.413 -0.175,0.602 -0.553,0.602 -0.378,0 -0.693,-0.196 -1.008,-0.483 l 0,-2.569 -0.868,0 0,3.717 z"
           id="path2356"
           style="fill:#000000;fill-opacity:1;fill-rule:nonzero;stroke:none" /><path
           d="m 369.337,583.568 0.868,0 0,-3.717 -0.868,0 0,3.717 z m -0.007,1.393 0.882,0 0,-0.749 -0.882,0 0,0.749 z"
           id="path2358"
           style="fill:#000000;fill-opacity:1;fill-rule:nonzero;stroke:none" /><path
           d="m 370.9182,580.3616 0.469,0.525 c 0.28,-0.238 0.693,-0.441 1.169,-0.441 0.462,0 0.742,0.119 0.742,0.427 0,0.301 -0.378,0.392 -0.826,0.497 -0.637,0.147 -1.4,0.315 -1.4,1.176 0,0.651 0.56,1.092 1.379,1.092 0.707,0 1.141,-0.203 1.526,-0.525 l -0.413,-0.56 c -0.273,0.224 -0.714,0.406 -1.05,0.406 -0.476,0 -0.63,-0.168 -0.63,-0.378 0,-0.301 0.371,-0.392 0.812,-0.49 0.637,-0.14 1.414,-0.301 1.414,-1.169 0,-0.784 -0.707,-1.148 -1.554,-1.148 -0.686,0 -1.302,0.245 -1.638,0.588"
           id="path2362"
           style="fill:#000000;fill-opacity:1;fill-rule:nonzero;stroke:none" /><path
           d="m 375.212,580.8236 0,2.058 -0.644,0 0,0.686 0.644,0 0,1.295 0.861,0 0,-1.295 0.959,0 0,-0.686 -0.959,0 0,-1.841 c 0,-0.399 0.119,-0.56 0.546,-0.56 0.126,0 0.287,0.021 0.371,0.049 l 0,-0.679 c -0.091,-0.021 -0.413,-0.049 -0.63,-0.049 -0.945,0 -1.148,0.35 -1.148,1.022"
           id="path2366"
           style="fill:#000000;fill-opacity:1;fill-rule:nonzero;stroke:none" /><path
           d="m 380.0714,582.0696 c -0.049,0.567 -0.329,0.868 -0.847,0.868 -0.42,0 -0.805,-0.238 -0.889,-0.868 l 1.736,0 z m -2.611,-0.364 c 0,1.414 1.001,1.932 1.771,1.932 0.833,0 1.631,-0.497 1.631,-2.009 l 0,-0.203 -2.541,0 c 0.035,-0.672 0.448,-0.966 0.994,-0.966 0.483,0 0.763,0.161 1.043,0.434 l 0.455,-0.448 c -0.385,-0.427 -0.896,-0.672 -1.561,-0.672 -0.931,0 -1.792,0.567 -1.792,1.932"
           id="path2370"
           style="fill:#000000;fill-opacity:1;fill-rule:nonzero;stroke:none" /><path
           d="m 381.6708,583.5676 0.861,0 0,-0.609 0.014,0 c 0.231,0.371 0.63,0.679 1.337,0.679 l 0.056,0 -0.028,-0.791 c -0.042,0.007 -0.182,0.014 -0.231,0.014 -0.553,0 -0.903,-0.259 -1.148,-0.658 l 0,-2.352 -0.861,0 0,3.717 z"
           id="path2374"
           style="fill:#000000;fill-opacity:1;fill-rule:nonzero;stroke:none" /><path
           d="m 384.583,583.568 0.868,0 0,-3.717 -0.868,0 0,3.717 z m -0.007,1.393 0.882,0 0,-0.749 -0.882,0 0,0.749 z"
           id="path2376"
           style="fill:#000000;fill-opacity:1;fill-rule:nonzero;stroke:none" /><path
           d="m 386.4279,580.9006 0,2.667 0.868,0 0,-2.464 c 0,-0.413 0.175,-0.602 0.553,-0.602 0.378,0 0.693,0.196 1.008,0.483 l 0,2.583 0.868,0 0,-3.717 -0.868,0 0,0.504 c -0.238,-0.252 -0.686,-0.574 -1.358,-0.574 -0.651,0 -1.071,0.385 -1.071,1.12"
           id="path2380"
           style="fill:#000000;fill-opacity:1;fill-rule:nonzero;stroke:none" /><path
           d="m 390.7146,583.5676 0.861,0 0,-0.511 c 0.287,0.315 0.707,0.581 1.274,0.581 0.623,0 0.868,-0.245 1.015,-0.609 0.294,0.322 0.735,0.609 1.302,0.609 0.756,0 1.085,-0.455 1.085,-1.12 l 0,-2.667 -0.861,0 0,2.45 c 0,0.413 -0.119,0.602 -0.525,0.602 -0.35,0 -0.63,-0.196 -0.952,-0.483 l 0,-2.569 -0.861,0 0,2.45 c 0,0.413 -0.119,0.602 -0.525,0.602 -0.343,0 -0.63,-0.196 -0.952,-0.483 l 0,-2.569 -0.861,0 0,3.717 z"
           id="path2384"
           style="fill:#000000;fill-opacity:1;fill-rule:nonzero;stroke:none" /><path
           d="m 399.6115,582.8817 -0.644,0 0,0.686 0.644,0 0,0.378 c 0,0.623 0.259,1.106 1.204,1.106 0.161,0 0.448,-0.028 0.511,-0.035 l 0,-0.665 c -0.056,0.014 -0.196,0.028 -0.294,0.028 -0.308,0 -0.56,-0.084 -0.56,-0.483 l 0,-0.329 0.812,0 0,-0.686 -0.812,0 0,-3.031 -0.861,0 0,3.031 z"
           id="path2388"
           style="fill:#000000;fill-opacity:1;fill-rule:nonzero;stroke:none" /><path
           d="m 403.843,584.786 0.791,0 0,-0.847 -0.791,0 0,0.847 z m -1.379,0 0.784,0 0,-0.847 -0.784,0 0,0.847 z m -0.567,-3.885 0,2.667 0.868,0 0,-2.464 c 0,-0.413 0.175,-0.602 0.553,-0.602 0.378,0 0.693,0.196 1.008,0.483 l 0,2.583 0.868,0 0,-3.717 -0.868,0 0,0.504 c -0.238,-0.252 -0.686,-0.574 -1.358,-0.574 -0.651,0 -1.071,0.385 -1.071,1.12"
           id="path2390"
           style="fill:#000000;fill-opacity:1;fill-rule:nonzero;stroke:none" /><path
           d="m 406.1838,583.5676 0.861,0 0,-0.609 0.014,0 c 0.231,0.371 0.63,0.679 1.337,0.679 l 0.056,0 -0.028,-0.791 c -0.042,0.007 -0.182,0.014 -0.231,0.014 -0.553,0 -0.903,-0.259 -1.148,-0.658 l 0,-2.352 -0.861,0 0,3.717 z"
           id="path2394"
           style="fill:#000000;fill-opacity:1;fill-rule:nonzero;stroke:none" /><path
           d="m 356.7379,572.6686 0.693,0.364 c 0.308,-0.609 0.784,-0.903 1.428,-0.903 0.63,0 1.057,0.203 1.057,0.672 0,0.448 -0.322,0.658 -1.176,0.91 -1.001,0.294 -1.806,0.567 -1.806,1.554 0,0.882 0.721,1.463 1.771,1.463 1.022,0 1.624,-0.504 1.939,-1.113 l -0.637,-0.441 c -0.308,0.518 -0.749,0.756 -1.309,0.756 -0.574,0 -0.903,-0.21 -0.903,-0.588 0,-0.483 0.371,-0.644 1.218,-0.896 0.98,-0.287 1.764,-0.609 1.764,-1.582 0,-0.847 -0.721,-1.512 -1.953,-1.512 -1.029,0 -1.757,0.532 -2.086,1.316"
           id="path2398"
           style="fill:#000000;fill-opacity:1;fill-rule:nonzero;stroke:none" /><path
           d="m 361.4397,573.3056 c 0,1.421 0.959,1.932 1.785,1.932 0.924,0 1.316,-0.511 1.54,-1.085 l -0.728,-0.259 c -0.147,0.42 -0.413,0.623 -0.826,0.623 -0.49,0 -0.903,-0.322 -0.903,-1.211 0,-0.791 0.322,-1.225 0.889,-1.225 0.392,0 0.665,0.119 0.868,0.644 l 0.714,-0.259 c -0.266,-0.595 -0.707,-1.092 -1.603,-1.092 -0.861,0 -1.736,0.574 -1.736,1.932"
           id="path2402"
           style="fill:#000000;fill-opacity:1;fill-rule:nonzero;stroke:none" /><path
           d="m 365.4885,576.6307 0.868,0 0,-1.967 c 0.238,0.252 0.686,0.574 1.358,0.574 0.651,0 1.071,-0.385 1.071,-1.12 l 0,-2.667 -0.868,0 0,2.45 c 0,0.413 -0.175,0.602 -0.553,0.602 -0.378,0 -0.693,-0.196 -1.008,-0.483 l 0,-2.569 -0.868,0 0,5.18 z"
           id="path2406"
           style="fill:#000000;fill-opacity:1;fill-rule:nonzero;stroke:none" /><path
           d="m 369.7235,572.5006 0,2.667 0.868,0 0,-2.464 c 0,-0.413 0.175,-0.602 0.553,-0.602 0.378,0 0.693,0.196 1.008,0.483 l 0,2.583 0.868,0 0,-3.717 -0.868,0 0,0.504 c -0.238,-0.252 -0.686,-0.574 -1.358,-0.574 -0.651,0 -1.071,0.385 -1.071,1.12"
           id="path2410"
           style="fill:#000000;fill-opacity:1;fill-rule:nonzero;stroke:none" /><path
           d="m 374.026,576.631 0.868,0 0,-5.18 -0.868,0 0,5.18 z"
           id="path2412"
           style="fill:#000000;fill-opacity:1;fill-rule:nonzero;stroke:none" /><path
           d="m 378.3131,573.6696 c -0.049,0.567 -0.329,0.868 -0.847,0.868 -0.42,0 -0.805,-0.238 -0.889,-0.868 l 1.736,0 z m -2.611,-0.364 c 0,1.414 1.001,1.932 1.771,1.932 0.833,0 1.631,-0.497 1.631,-2.009 l 0,-0.203 -2.541,0 c 0.035,-0.672 0.448,-0.966 0.994,-0.966 0.483,0 0.763,0.161 1.043,0.434 l 0.455,-0.448 c -0.385,-0.427 -0.896,-0.672 -1.561,-0.672 -0.931,0 -1.792,0.567 -1.792,1.932"
           id="path2416"
           style="fill:#000000;fill-opacity:1;fill-rule:nonzero;stroke:none" /><path
           d="m 381.925,572.5006 0,2.667 0.868,0 0,-2.464 c 0,-0.413 0.175,-0.602 0.553,-0.602 0.378,0 0.693,0.196 1.008,0.483 l 0,2.583 0.868,0 0,-3.717 -0.868,0 0,0.504 c -0.238,-0.252 -0.686,-0.574 -1.358,-0.574 -0.651,0 -1.071,0.385 -1.071,1.12"
           id="path2420"
           style="fill:#000000;fill-opacity:1;fill-rule:nonzero;stroke:none" /><path
           d="m 386.2118,575.1676 0.868,0 0,-0.504 c 0.238,0.252 0.686,0.574 1.358,0.574 0.651,0 1.071,-0.385 1.071,-1.12 l 0,-2.667 -0.868,0 0,2.45 c 0,0.413 -0.175,0.602 -0.553,0.602 -0.378,0 -0.693,-0.196 -1.008,-0.483 l 0,-2.569 -0.868,0 0,3.717 z"
           id="path2424"
           style="fill:#000000;fill-opacity:1;fill-rule:nonzero;stroke:none" /><path
           d="m 392.9423,572.5706 0,1.491 c -0.231,0.301 -0.567,0.462 -0.875,0.462 -0.651,0 -0.917,-0.42 -0.917,-1.246 0,-0.784 0.336,-1.176 0.889,-1.176 0.357,0 0.7,0.224 0.903,0.469 m -2.653,0.728 c 0,1.288 0.637,1.939 1.589,1.939 0.399,0 0.791,-0.161 1.064,-0.469 l 0,1.862 0.861,0 0,-4.27 c 0,-0.448 0.028,-0.721 0.112,-0.91 l -0.889,0 c -0.049,0.105 -0.084,0.315 -0.084,0.504 -0.273,-0.315 -0.63,-0.56 -1.183,-0.56 -0.847,0 -1.47,0.616 -1.47,1.904"
           id="path2428"
           style="fill:#000000;fill-opacity:1;fill-rule:nonzero;stroke:none" /><path
           d="m 396.5962,576.6307 0.882,0 0.658,-2.681 c 0.105,-0.413 0.203,-0.798 0.273,-1.204 l 0.014,0 c 0.07,0.399 0.161,0.784 0.266,1.197 l 0.623,2.688 0.84,0 0.644,-2.702 c 0.112,-0.441 0.196,-0.749 0.273,-1.183 l 0.014,0 c 0.077,0.448 0.154,0.721 0.252,1.162 l 0.644,2.723 0.819,0 -1.365,-5.18 -0.763,0 -0.931,3.969 -0.014,0 -0.98,-3.969 -0.77,0 -1.379,5.18 z"
           id="path2432"
           style="fill:#000000;fill-opacity:1;fill-rule:nonzero;stroke:none" /><path
           d="m 405.6394,573.6696 c -0.049,0.567 -0.329,0.868 -0.847,0.868 -0.42,0 -0.805,-0.238 -0.889,-0.868 l 1.736,0 z m -2.611,-0.364 c 0,1.414 1.001,1.932 1.771,1.932 0.833,0 1.631,-0.497 1.631,-2.009 l 0,-0.203 -2.541,0 c 0.035,-0.672 0.448,-0.966 0.994,-0.966 0.483,0 0.763,0.161 1.043,0.434 l 0.455,-0.448 c -0.385,-0.427 -0.896,-0.672 -1.561,-0.672 -0.931,0 -1.792,0.567 -1.792,1.932"
           id="path2436"
           style="fill:#000000;fill-opacity:1;fill-rule:nonzero;stroke:none" /><path
           d="m 407.247,575.168 0.868,0 0,-3.717 -0.868,0 0,3.717 z m -0.007,1.393 0.882,0 0,-0.749 -0.882,0 0,0.749 z"
           id="path2438"
           style="fill:#000000;fill-opacity:1;fill-rule:nonzero;stroke:none" /><path
           d="m 409.4032,572.4236 0,2.058 -0.644,0 0,0.686 0.644,0 0,1.295 0.861,0 0,-1.295 0.959,0 0,-0.686 -0.959,0 0,-1.841 c 0,-0.399 0.119,-0.56 0.546,-0.56 0.126,0 0.287,0.021 0.371,0.049 l 0,-0.679 c -0.091,-0.021 -0.413,-0.049 -0.63,-0.049 -0.945,0 -1.148,0.35 -1.148,1.022"
           id="path2442"
           style="fill:#000000;fill-opacity:1;fill-rule:nonzero;stroke:none" /><path
           d="m 414.2625,573.6696 c -0.049,0.567 -0.329,0.868 -0.847,0.868 -0.42,0 -0.805,-0.238 -0.889,-0.868 l 1.736,0 z m -2.611,-0.364 c 0,1.414 1.001,1.932 1.771,1.932 0.833,0 1.631,-0.497 1.631,-2.009 l 0,-0.203 -2.541,0 c 0.035,-0.672 0.448,-0.966 0.994,-0.966 0.483,0 0.763,0.161 1.043,0.434 l 0.455,-0.448 c -0.385,-0.427 -0.896,-0.672 -1.561,-0.672 -0.931,0 -1.792,0.567 -1.792,1.932"
           id="path2446"
           style="fill:#000000;fill-opacity:1;fill-rule:nonzero;stroke:none" /><path
           d="m 415.862,575.1676 0.861,0 0,-0.609 0.014,0 c 0.231,0.371 0.63,0.679 1.337,0.679 l 0.056,0 -0.028,-0.791 c -0.042,0.007 -0.182,0.014 -0.231,0.014 -0.553,0 -0.903,-0.259 -1.148,-0.658 l 0,-2.352 -0.861,0 0,3.717 z"
           id="path2450"
           style="fill:#000000;fill-opacity:1;fill-rule:nonzero;stroke:none" /><path
           d="m 421.4116,573.3056 c 0,0.784 -0.336,1.197 -0.889,1.197 -0.357,0 -0.7,-0.224 -0.903,-0.469 l 0,-1.491 c 0.231,-0.301 0.567,-0.462 0.875,-0.462 0.651,0 0.917,0.399 0.917,1.225 m -1.792,-1.442 0,-0.413 -0.861,0 0,5.18 0.861,0 0,-1.953 c 0.245,0.294 0.63,0.56 1.183,0.56 0.847,0 1.47,-0.637 1.47,-1.925 0,-1.288 -0.637,-1.918 -1.589,-1.918 -0.399,0 -0.791,0.161 -1.064,0.469"
           id="path2454"
           style="fill:#000000;fill-opacity:1;fill-rule:nonzero;stroke:none" /><path
           d="m 423.103,575.168 0.868,0 0,-3.717 -0.868,0 0,3.717 z m -0.007,1.393 0.882,0 0,-0.749 -0.882,0 0,0.749 z"
           id="path2456"
           style="fill:#000000;fill-opacity:1;fill-rule:nonzero;stroke:none" /><path
           d="m 424.993,576.631 0.868,0 0,-5.18 -0.868,0 0,5.18 z"
           id="path2458"
           style="fill:#000000;fill-opacity:1;fill-rule:nonzero;stroke:none" /><path
           d="m 429.3482,572.5706 0,1.491 c -0.231,0.301 -0.567,0.462 -0.875,0.462 -0.651,0 -0.917,-0.42 -0.917,-1.246 0,-0.784 0.336,-1.176 0.889,-1.176 0.357,0 0.7,0.224 0.903,0.469 m -2.653,0.728 c 0,1.288 0.637,1.939 1.589,1.939 0.399,0 0.791,-0.161 1.064,-0.469 l 0,1.862 0.861,0 0,-4.27 c 0,-0.448 0.028,-0.721 0.112,-0.91 l -0.889,0 c -0.049,0.105 -0.084,0.315 -0.084,0.504 -0.273,-0.315 -0.63,-0.56 -1.183,-0.56 -0.847,0 -1.47,0.616 -1.47,1.904"
           id="path2462"
           style="fill:#000000;fill-opacity:1;fill-rule:nonzero;stroke:none" /><path
           d="m 431.1654,572.5006 0,2.667 0.869,0 0,-2.464 c 0,-0.413 0.175,-0.602 0.553,-0.602 0.378,0 0.693,0.196 1.008,0.483 l 0,2.583 0.868,0 0,-3.717 -0.868,0 0,0.504 c -0.238,-0.252 -0.686,-0.574 -1.358,-0.574 -0.652,0 -1.072,0.385 -1.072,1.12"
           id="path2466"
           style="fill:#000000;fill-opacity:1;fill-rule:nonzero;stroke:none" /><path
           d="m 435.4529,575.1676 0.867,0 0,-0.504 c 0.238,0.252 0.687,0.574 1.358,0.574 0.651,0 1.071,-0.385 1.071,-1.12 l 0,-2.667 -0.867,0 0,2.45 c 0,0.413 -0.175,0.602 -0.554,0.602 -0.378,0 -0.693,-0.196 -1.008,-0.483 l 0,-2.569 -0.867,0 0,3.717 z"
           id="path2470"
           style="fill:#000000;fill-opacity:1;fill-rule:nonzero;stroke:none" /><path
           d="m 441.8845,573.8796 c 0,0.462 -0.266,0.714 -0.757,0.714 -0.476,0 -0.756,-0.259 -0.756,-0.714 0,-0.455 0.288,-0.7 0.763,-0.7 0.47,0 0.75,0.245 0.75,0.7 m 0.385,-2.814 c 0,0.266 -0.19,0.364 -0.945,0.413 l -0.645,0.042 c -0.077,0 -0.147,0.007 -0.224,0.021 -0.245,-0.112 -0.343,-0.287 -0.343,-0.476 0,-0.329 0.378,-0.434 1.134,-0.434 0.63,0 1.023,0.168 1.023,0.434 m -2.948,-0.147 c 0,0.371 0.231,0.637 0.609,0.784 -0.189,0.098 -0.286,0.252 -0.286,0.455 0,0.28 0.223,0.511 0.503,0.679 -0.378,0.238 -0.588,0.616 -0.588,1.071 0,0.763 0.588,1.33 1.561,1.33 0.511,0 0.889,-0.168 1.141,-0.392 0.238,0.189 0.617,0.336 0.924,0.364 l 0,-0.7 c -0.167,0 -0.406,-0.021 -0.651,-0.098 0.085,-0.133 0.134,-0.308 0.134,-0.504 0,-0.777 -0.582,-1.323 -1.548,-1.323 -0.21,0 -0.336,0.028 -0.518,0.077 -0.112,-0.063 -0.188,-0.14 -0.188,-0.238 0,-0.147 0.097,-0.196 0.426,-0.224 l 0.659,-0.042 c 1.099,-0.07 1.532,-0.364 1.532,-1.015 0,-0.763 -0.77,-1.134 -1.917,-1.134 -1.282,0 -1.793,0.371 -1.793,0.91"
           id="path2474"
           style="fill:#000000;fill-opacity:1;fill-rule:nonzero;stroke:none" /><path
           d="m 359.3559,564.1706 0,1.491 c -0.231,0.301 -0.567,0.462 -0.875,0.462 -0.651,0 -0.917,-0.42 -0.917,-1.246 0,-0.784 0.336,-1.176 0.889,-1.176 0.357,0 0.7,0.224 0.903,0.469 m -2.653,0.728 c 0,1.288 0.637,1.939 1.589,1.939 0.399,0 0.791,-0.161 1.064,-0.469 l 0,1.862 0.861,0 0,-4.27 c 0,-0.448 0.028,-0.721 0.112,-0.91 l -0.889,0 c -0.049,0.105 -0.084,0.315 -0.084,0.504 -0.273,-0.315 -0.63,-0.56 -1.183,-0.56 -0.847,0 -1.47,0.616 -1.47,1.904"
           id="path2478"
           style="fill:#000000;fill-opacity:1;fill-rule:nonzero;stroke:none" /><path
           d="m 363.6146,565.2697 c -0.049,0.567 -0.329,0.868 -0.847,0.868 -0.42,0 -0.805,-0.238 -0.889,-0.868 l 1.736,0 z m -2.611,-0.364 c 0,1.414 1.001,1.932 1.771,1.932 0.833,0 1.631,-0.497 1.631,-2.009 l 0,-0.203 -2.541,0 c 0.035,-0.672 0.448,-0.966 0.994,-0.966 0.483,0 0.763,0.161 1.043,0.434 l 0.455,-0.448 c -0.385,-0.427 -0.896,-0.672 -1.561,-0.672 -0.931,0 -1.792,0.567 -1.792,1.932"
           id="path2482"
           style="fill:#000000;fill-opacity:1;fill-rule:nonzero;stroke:none" /><path
           d="m 364.9446,563.5616 0.469,0.525 c 0.28,-0.238 0.693,-0.441 1.169,-0.441 0.462,0 0.742,0.119 0.742,0.427 0,0.301 -0.378,0.392 -0.826,0.497 -0.637,0.147 -1.4,0.315 -1.4,1.176 0,0.651 0.56,1.092 1.379,1.092 0.707,0 1.141,-0.203 1.526,-0.525 l -0.413,-0.56 c -0.273,0.224 -0.714,0.406 -1.05,0.406 -0.476,0 -0.63,-0.168 -0.63,-0.378 0,-0.301 0.371,-0.392 0.812,-0.49 0.637,-0.14 1.414,-0.301 1.414,-1.169 0,-0.784 -0.707,-1.148 -1.554,-1.148 -0.686,0 -1.302,0.245 -1.638,0.588"
           id="path2486"
           style="fill:#000000;fill-opacity:1;fill-rule:nonzero;stroke:none" /><path
           d="m 371.0975,568.2306 0.875,0 0,-4.382 2.387,0 0,-0.798 -3.262,0 0,5.18 z"
           id="path2490"
           style="fill:#000000;fill-opacity:1;fill-rule:nonzero;stroke:none" /><path
           d="m 377.3596,564.0867 0,0.819 c -1.029,-0.14 -1.575,-0.392 -1.575,-0.798 0,-0.294 0.203,-0.448 0.518,-0.448 0.441,0 0.784,0.168 1.057,0.427 m -2.422,-0.14 c 0,0.805 0.686,1.344 2.422,1.54 l 0,0.112 c 0,0.371 -0.196,0.532 -0.609,0.532 -0.518,0 -0.938,-0.252 -1.253,-0.504 l -0.42,0.539 c 0.399,0.364 1.022,0.672 1.792,0.672 0.994,0 1.337,-0.476 1.337,-1.344 l 0,-1.533 c 0,-0.448 0.028,-0.721 0.105,-0.91 l -0.868,0 c -0.049,0.154 -0.084,0.266 -0.084,0.476 -0.378,-0.385 -0.819,-0.532 -1.372,-0.532 -0.602,0 -1.05,0.336 -1.05,0.952"
           id="path2494"
           style="fill:#000000;fill-opacity:1;fill-rule:nonzero;stroke:none" /><path
           d="m 379.1697,566.7677 0.868,0 0,-0.504 c 0.238,0.252 0.686,0.574 1.358,0.574 0.651,0 1.071,-0.385 1.071,-1.12 l 0,-2.667 -0.868,0 0,2.45 c 0,0.413 -0.175,0.602 -0.553,0.602 -0.378,0 -0.693,-0.196 -1.008,-0.483 l 0,-2.569 -0.868,0 0,3.717 z"
           id="path2498"
           style="fill:#000000;fill-opacity:1;fill-rule:nonzero;stroke:none" /><path
           d="m 385.9001,564.1706 0,1.491 c -0.231,0.301 -0.567,0.462 -0.875,0.462 -0.651,0 -0.917,-0.42 -0.917,-1.246 0,-0.784 0.336,-1.176 0.889,-1.176 0.357,0 0.7,0.224 0.903,0.469 m -2.653,0.728 c 0,1.288 0.637,1.939 1.589,1.939 0.399,0 0.791,-0.161 1.064,-0.469 l 0,1.862 0.861,0 0,-4.27 c 0,-0.448 0.028,-0.721 0.112,-0.91 l -0.889,0 c -0.049,0.105 -0.084,0.315 -0.084,0.504 -0.273,-0.315 -0.63,-0.56 -1.183,-0.56 -0.847,0 -1.47,0.616 -1.47,1.904"
           id="path2502"
           style="fill:#000000;fill-opacity:1;fill-rule:nonzero;stroke:none" /><path
           d="m 390.159,565.2697 c -0.049,0.567 -0.329,0.868 -0.847,0.868 -0.42,0 -0.805,-0.238 -0.889,-0.868 l 1.736,0 z m -2.611,-0.364 c 0,1.414 1.001,1.932 1.771,1.932 0.833,0 1.631,-0.497 1.631,-2.009 l 0,-0.203 -2.541,0 c 0.035,-0.672 0.448,-0.966 0.994,-0.966 0.483,0 0.763,0.161 1.043,0.434 l 0.455,-0.448 c -0.385,-0.427 -0.896,-0.672 -1.561,-0.672 -0.931,0 -1.792,0.567 -1.792,1.932"
           id="path2506"
           style="fill:#000000;fill-opacity:1;fill-rule:nonzero;stroke:none" /><path
           d="m 391.4889,563.5616 0.469,0.525 c 0.28,-0.238 0.693,-0.441 1.169,-0.441 0.462,0 0.742,0.119 0.742,0.427 0,0.301 -0.378,0.392 -0.826,0.497 -0.637,0.147 -1.4,0.315 -1.4,1.176 0,0.651 0.56,1.092 1.379,1.092 0.707,0 1.141,-0.203 1.526,-0.525 l -0.413,-0.56 c -0.273,0.224 -0.714,0.406 -1.05,0.406 -0.476,0 -0.63,-0.168 -0.63,-0.378 0,-0.301 0.371,-0.392 0.812,-0.49 0.637,-0.14 1.414,-0.301 1.414,-1.169 0,-0.784 -0.707,-1.148 -1.554,-1.148 -0.686,0 -1.302,0.245 -1.638,0.588"
           id="path2510"
           style="fill:#000000;fill-opacity:1;fill-rule:nonzero;stroke:none" /><path
           d="m 397.6418,568.2306 0.889,0 2.45,-3.696 0.014,0 0,3.696 0.812,0 0,-5.18 -0.798,0 -2.541,3.773 -0.014,0 0,-3.773 -0.812,0 0,5.18 z"
           id="path2514"
           style="fill:#000000;fill-opacity:1;fill-rule:nonzero;stroke:none" /><path
           d="m 405.4559,564.9056 c 0,0.693 -0.294,1.197 -0.945,1.197 -0.623,0 -0.945,-0.448 -0.945,-1.197 0,-0.707 0.287,-1.211 0.945,-1.211 0.623,0 0.945,0.448 0.945,1.211 m -2.758,0 c 0,1.372 0.903,1.932 1.813,1.932 0.903,0 1.813,-0.56 1.813,-1.932 0,-1.358 -0.91,-1.932 -1.813,-1.932 -0.903,0 -1.813,0.574 -1.813,1.932"
           id="path2518"
           style="fill:#000000;fill-opacity:1;fill-rule:nonzero;stroke:none" /><path
           d="m 407.1204,566.7677 0.861,0 0,-0.609 0.014,0 c 0.231,0.371 0.63,0.679 1.337,0.679 l 0.056,0 -0.028,-0.791 c -0.042,0.007 -0.182,0.014 -0.231,0.014 -0.553,0 -0.903,-0.259 -1.148,-0.658 l 0,-2.352 -0.861,0 0,3.717 z"
           id="path2522"
           style="fill:#000000;fill-opacity:1;fill-rule:nonzero;stroke:none" /><path
           d="m 412.4669,564.1706 0,1.491 c -0.231,0.301 -0.567,0.462 -0.875,0.462 -0.651,0 -0.917,-0.42 -0.917,-1.246 0,-0.784 0.336,-1.176 0.889,-1.176 0.357,0 0.7,0.224 0.903,0.469 m -2.653,0.728 c 0,1.288 0.637,1.939 1.589,1.939 0.399,0 0.791,-0.161 1.064,-0.469 l 0,1.862 0.861,0 0,-4.27 c 0,-0.448 0.028,-0.721 0.112,-0.91 l -0.889,0 c -0.049,0.105 -0.084,0.315 -0.084,0.504 -0.273,-0.315 -0.63,-0.56 -1.183,-0.56 -0.847,0 -1.47,0.616 -1.47,1.904"
           id="path2526"
           style="fill:#000000;fill-opacity:1;fill-rule:nonzero;stroke:none" /><path
           d="m 414.3323,566.7677 0.861,0 0,-0.609 0.014,0 c 0.231,0.371 0.63,0.679 1.337,0.679 l 0.056,0 -0.028,-0.791 c -0.042,0.007 -0.182,0.014 -0.231,0.014 -0.553,0 -0.903,-0.259 -1.148,-0.658 l 0,-2.352 -0.861,0 0,3.717 z"
           id="path2530"
           style="fill:#000000;fill-opacity:1;fill-rule:nonzero;stroke:none" /><path
           d="m 417.2289,568.2306 0.868,0 0,-1.967 c 0.238,0.252 0.686,0.574 1.358,0.574 0.651,0 1.071,-0.385 1.071,-1.12 l 0,-2.667 -0.868,0 0,2.45 c 0,0.413 -0.175,0.602 -0.553,0.602 -0.378,0 -0.693,-0.196 -1.008,-0.483 l 0,-2.569 -0.868,0 0,5.18 z"
           id="path2534"
           style="fill:#000000;fill-opacity:1;fill-rule:nonzero;stroke:none" /><path
           d="m 423.9019,565.2697 c -0.049,0.567 -0.329,0.868 -0.847,0.868 -0.42,0 -0.805,-0.238 -0.889,-0.868 l 1.736,0 z m -2.611,-0.364 c 0,1.414 1.001,1.932 1.771,1.932 0.833,0 1.631,-0.497 1.631,-2.009 l 0,-0.203 -2.541,0 c 0.035,-0.672 0.448,-0.966 0.994,-0.966 0.483,0 0.763,0.161 1.043,0.434 l 0.455,-0.448 c -0.385,-0.427 -0.896,-0.672 -1.561,-0.672 -0.931,0 -1.792,0.567 -1.792,1.932"
           id="path2538"
           style="fill:#000000;fill-opacity:1;fill-rule:nonzero;stroke:none" /><path
           d="m 425.509,566.768 0.868,0 0,-3.717 -0.868,0 0,3.717 z m -0.007,1.393 0.882,0 0,-0.749 -0.882,0 0,0.749 z"
           id="path2540"
           style="fill:#000000;fill-opacity:1;fill-rule:nonzero;stroke:none" /><path
           d="m 427.3826,566.7677 0.868,0 0,-0.504 c 0.238,0.252 0.686,0.574 1.358,0.574 0.651,0 1.071,-0.385 1.071,-1.12 l 0,-2.667 -0.868,0 0,2.45 c 0,0.413 -0.175,0.602 -0.553,0.602 -0.378,0 -0.693,-0.196 -1.008,-0.483 l 0,-2.569 -0.868,0 0,3.717 z"
           id="path2544"
           style="fill:#000000;fill-opacity:1;fill-rule:nonzero;stroke:none" /><path
           d="m 431.52,565.557 1.729,0 0,-0.616 -1.729,0 0,0.616 z"
           id="path2546"
           style="fill:#000000;fill-opacity:1;fill-rule:nonzero;stroke:none" /><path
           d="m 433.5419,568.2306 0.882,0 0.658,-2.681 c 0.105,-0.413 0.203,-0.798 0.273,-1.204 l 0.014,0 c 0.07,0.399 0.161,0.784 0.266,1.197 l 0.623,2.688 0.84,0 0.644,-2.702 c 0.112,-0.441 0.196,-0.749 0.273,-1.183 l 0.014,0 c 0.077,0.448 0.154,0.721 0.252,1.162 l 0.644,2.723 0.819,0 -1.365,-5.18 -0.763,0 -0.931,3.969 -0.014,0 -0.98,-3.969 -0.77,0 -1.379,5.18 z"
           id="path2550"
           style="fill:#000000;fill-opacity:1;fill-rule:nonzero;stroke:none" /><path
           d="m 442.5852,565.2697 c -0.049,0.567 -0.329,0.868 -0.847,0.868 -0.42,0 -0.805,-0.238 -0.889,-0.868 l 1.736,0 z m -2.611,-0.364 c 0,1.414 1.001,1.932 1.771,1.932 0.833,0 1.631,-0.497 1.631,-2.009 l 0,-0.203 -2.541,0 c 0.035,-0.672 0.448,-0.966 0.994,-0.966 0.483,0 0.763,0.161 1.043,0.434 l 0.455,-0.448 c -0.385,-0.427 -0.896,-0.672 -1.561,-0.672 -0.931,0 -1.792,0.567 -1.792,1.932"
           id="path2554"
           style="fill:#000000;fill-opacity:1;fill-rule:nonzero;stroke:none" /><path
           d="m 443.9152,563.5616 0.469,0.525 c 0.28,-0.238 0.693,-0.441 1.169,-0.441 0.462,0 0.742,0.119 0.742,0.427 0,0.301 -0.378,0.392 -0.826,0.497 -0.637,0.147 -1.4,0.315 -1.4,1.176 0,0.651 0.56,1.092 1.379,1.092 0.707,0 1.141,-0.203 1.526,-0.525 l -0.413,-0.56 c -0.273,0.224 -0.714,0.406 -1.05,0.406 -0.476,0 -0.63,-0.168 -0.63,-0.378 0,-0.301 0.371,-0.392 0.812,-0.49 0.637,-0.14 1.414,-0.301 1.414,-1.169 0,-0.784 -0.707,-1.148 -1.554,-1.148 -0.686,0 -1.302,0.245 -1.638,0.588"
           id="path2558"
           style="fill:#000000;fill-opacity:1;fill-rule:nonzero;stroke:none" /><path
           d="m 448.209,564.0236 0,2.058 -0.644,0 0,0.686 0.644,0 0,1.295 0.861,0 0,-1.295 0.959,0 0,-0.686 -0.959,0 0,-1.841 c 0,-0.399 0.119,-0.56 0.546,-0.56 0.126,0 0.287,0.021 0.371,0.049 l 0,-0.679 c -0.091,-0.021 -0.413,-0.049 -0.63,-0.049 -0.945,0 -1.148,0.35 -1.148,1.022"
           id="path2562"
           style="fill:#000000;fill-opacity:1;fill-rule:nonzero;stroke:none" /><path
           d="m 451.1973,566.0817 -0.644,0 0,0.686 0.644,0 0,0.378 c 0,0.623 0.259,1.106 1.204,1.106 0.161,0 0.448,-0.028 0.511,-0.035 l 0,-0.665 c -0.056,0.014 -0.196,0.028 -0.294,0.028 -0.308,0 -0.56,-0.084 -0.56,-0.483 l 0,-0.329 0.812,0 0,-0.686 -0.812,0 0,-3.031 -0.861,0 0,3.031 z"
           id="path2566"
           style="fill:#000000;fill-opacity:1;fill-rule:nonzero;stroke:none" /><path
           d="m 455.7396,564.0867 0,0.819 c -1.029,-0.14 -1.575,-0.392 -1.575,-0.798 0,-0.294 0.203,-0.448 0.518,-0.448 0.441,0 0.784,0.168 1.057,0.427 m -2.422,-0.14 c 0,0.805 0.686,1.344 2.422,1.54 l 0,0.112 c 0,0.371 -0.196,0.532 -0.609,0.532 -0.518,0 -0.938,-0.252 -1.253,-0.504 l -0.42,0.539 c 0.399,0.364 1.022,0.672 1.792,0.672 0.994,0 1.337,-0.476 1.337,-1.344 l 0,-1.533 c 0,-0.448 0.028,-0.721 0.105,-0.91 l -0.868,0 c -0.049,0.154 -0.084,0.266 -0.084,0.476 -0.378,-0.385 -0.819,-0.532 -1.372,-0.532 -0.602,0 -1.05,0.336 -1.05,0.952"
           id="path2570"
           style="fill:#000000;fill-opacity:1;fill-rule:nonzero;stroke:none" /><path
           d="m 457.571,568.231 0.868,0 0,-5.18 -0.868,0 0,5.18 z"
           id="path2572"
           style="fill:#000000;fill-opacity:1;fill-rule:nonzero;stroke:none" /><path
           d="m 461.859,565.2697 c -0.049,0.567 -0.329,0.868 -0.847,0.868 -0.42,0 -0.805,-0.238 -0.889,-0.868 l 1.736,0 z m -2.611,-0.364 c 0,1.414 1.001,1.932 1.771,1.932 0.833,0 1.631,-0.497 1.631,-2.009 l 0,-0.203 -2.541,0 c 0.035,-0.672 0.448,-0.966 0.994,-0.966 0.483,0 0.763,0.161 1.043,0.434 l 0.455,-0.448 c -0.385,-0.427 -0.896,-0.672 -1.561,-0.672 -0.931,0 -1.792,0.567 -1.792,1.932"
           id="path2576"
           style="fill:#000000;fill-opacity:1;fill-rule:nonzero;stroke:none" /><path
           d="m 463.4585,566.7677 0.868,0 0,-0.504 c 0.238,0.252 0.686,0.574 1.358,0.574 0.651,0 1.071,-0.385 1.071,-1.12 l 0,-2.667 -0.868,0 0,2.45 c 0,0.413 -0.175,0.602 -0.553,0.602 -0.378,0 -0.693,-0.196 -1.008,-0.483 l 0,-2.569 -0.868,0 0,3.717 z"
           id="path2580"
           style="fill:#000000;fill-opacity:1;fill-rule:nonzero;stroke:none" /></g><g
         id="g12716"><path
           d="m 496.8548,554.3469 c -8.215,0 -14.878,6.697 -14.878,14.956 l 0,16.493 29.756,0 0,-16.493 c 0,-8.259 -6.664,-14.956 -14.878,-14.956"
           id="path2584"
           style="fill:#ffffff;fill-opacity:1;fill-rule:evenodd;stroke:none" /><path
           d="m 511.8824,585.9456 0,-16.643 c 0,-8.341 -6.73,-15.105 -15.028,-15.105 -8.297,0 -15.027,6.764 -15.027,15.105 l 0,16.643 30.055,0 z m -0.56,-16.643 c 0,-8.034 -6.482,-14.545 -14.468,-14.545 -7.985,0 -14.467,6.511 -14.467,14.545 l 0,16.083 28.935,0 0,-16.083 z"
           id="path2588"
           style="fill:#000000;fill-opacity:1;fill-rule:evenodd;stroke:none" /><path
           d="m 497.4176,555.8373 c -0.132,-0.236 -0.328,-0.432 -0.563,-0.566 -0.234,0.133 -0.428,0.328 -0.56,0.563 0.219,0.033 0.418,0.125 0.563,0.3 0.144,-0.169 0.342,-0.262 0.56,-0.297 m -3.183,1.493 c -0.264,0.054 -0.51,0.178 -0.708,0.36 0.054,0.263 0.18,0.508 0.362,0.706 0.098,-0.197 0.247,-0.357 0.456,-0.441 -0.12,-0.191 -0.146,-0.407 -0.11,-0.625 m 0.441,3.484 c -0.031,0.269 0.011,0.542 0.123,0.788 0.267,0.03 0.539,-0.013 0.784,-0.125 -0.159,-0.156 -0.265,-0.348 -0.279,-0.575 -0.216,0.052 -0.431,0.012 -0.628,-0.088 m 3.449,0.661 c 0.246,0.113 0.519,0.157 0.787,0.127 0.112,-0.245 0.154,-0.517 0.123,-0.784 -0.197,0.102 -0.412,0.144 -0.633,0.087 -0.017,0.222 -0.121,0.413 -0.277,0.57 m 1.695,-3.076 c 0.183,-0.199 0.31,-0.445 0.364,-0.71 -0.199,-0.181 -0.444,-0.305 -0.708,-0.359 0.036,0.219 0.009,0.437 -0.113,0.629 0.206,0.085 0.355,0.243 0.457,0.44 m -2.965,-0.554 c -0.512,0 -0.926,0.415 -0.926,0.926 0,0.511 0.414,0.926 0.926,0.926 0.511,0 0.926,-0.415 0.926,-0.926 0,-0.511 -0.415,-0.926 -0.926,-0.926 m -13.721,26.794 11.351,0 c -0.422,-0.464 -0.833,-0.938 -1.21,-1.441 -1.43,-1.91 -1.289,-4.575 -2.735,-6.442 -1.262,-1.633 -3.402,-2.061 -4.585,-3.569 -1.339,-1.71 -1.425,-4.061 -2.688,-5.81 -0.087,0.629 -0.133,1.272 -0.133,1.925 l 0,15.337 z m 13.348,-5.361 0,-9.976 c 0,-5.031 -2.677,-9.43 -6.674,-11.84 -2.035,1.227 -3.728,2.971 -4.9,5.051 0.726,0.756 1.437,1.524 1.991,2.422 1.127,1.828 1.295,4.142 2.631,5.845 1.237,1.577 3.419,2.014 4.582,3.565 1.108,1.479 1.448,3.35 2.37,4.933"
           id="path2592"
           style="fill:#009037;fill-opacity:1;fill-rule:nonzero;stroke:none" /><path
           d="m 497.2286,584.639 13.347,0 0,-15.336 c 0,-5.031 -2.678,-9.43 -6.673,-11.841 -3.997,2.411 -6.674,6.81 -6.674,11.841 l 0,15.336 z m 12.795,-8.861 c 0,-0.895 -0.808,-1.282 -0.808,-1.95 0,-0.791 0.781,-1.172 0.781,-1.935 0,-0.789 -0.62,-0.922 -1.022,-0.786 0,0 0.251,0.061 0.251,0.368 0,0.935 -2.002,0.885 -2.002,2.353 0,0.768 0.546,1.379 0.546,1.832 0,0.23 -0.174,0.554 -0.47,0.657 0.409,0.29 1.098,0.112 1.275,-0.333 0.142,0.371 0.271,0.921 0.105,1.457 0.94,-0.361 1.343,-0.973 1.344,-1.659 l 0,-0.004 z m -7.637,5.581 c 0.211,-0.35 0.745,10e-4 0.745,10e-4 0,0 -0.647,0.613 -0.745,-10e-4 m 3.318,-19.483 c 0,0.462 0.455,0.862 0.5,0.901 0.023,-0.004 0.046,-0.006 0.069,-0.006 0.249,0 0.451,0.202 0.451,0.45 0,0.068 -0.016,0.133 -0.043,0.19 1.233,2.201 0.907,2.521 -1.004,4.082 -0.524,0.428 -0.685,1.677 -0.685,2.826 -0.76,1.775 -2.813,1.569 -3.587,3.312 l 0.897,-0.049 c 0.461,-0.025 0.784,0.254 0.938,0.483 0.142,0.213 0.002,0.505 -0.23,0.427 -0.104,-0.288 -0.386,-0.516 -0.696,-0.499 l -2.23,0.12 c -0.443,-0.441 -0.348,-1.079 0.428,-1.412 l 0,-0.333 0.532,0 c 0.189,-0.601 0.196,-1.14 0.02,-1.503 -0.424,0 -0.903,0.506 -0.903,0.506 10e-4,0.053 0.008,0.096 0.008,0.142 0,0.248 -0.201,0.449 -0.449,0.449 -0.036,0 -0.069,-0.004 -0.102,-0.011 -0.253,0.401 -0.212,1.259 -0.866,2.214 l 0.495,0.602 1.811,0.609 c 0.052,2.122 2.492,2.613 2.866,4.164 0.522,0 0.848,0.154 1.101,0.65 0.065,0.129 0.035,0.431 -0.292,0.366 -0.182,-0.515 -0.423,-0.605 -0.761,-0.605 -0.879,0 -1.588,0.147 -1.706,-0.244 -0.199,-0.661 -1.115,-0.246 -1.115,-0.246 l 0.224,0.163 c 0.019,-0.002 0.038,-0.003 0.056,-0.003 0.171,0 0.308,0.089 0.308,0.199 0,0.11 -0.138,0.2 -0.308,0.2 -0.169,0 -0.306,-0.089 -0.306,-0.2 0,-0.007 0,-0.013 10e-4,-0.02 l -0.21,-0.153 c -0.271,0 -0.318,0.213 -0.325,0.313 0.107,0 0.187,0.089 0.187,0.199 0,0.11 -0.08,0.199 -0.179,0.199 0.004,0.081 0.05,0.248 0.244,0.402 l 1.563,1.241 c 0.227,0.18 0.678,0.422 0.879,0.526 -0.024,0.34 0.104,0.789 0.104,1.106 0,0 0.46,-0.197 0.649,-0.644 0.138,-0.33 0.051,-0.536 -0.011,-0.698 0.085,-0.133 0.44,-0.134 0.482,0.208 0.016,0.134 0.014,0.293 -0.037,0.477 0.608,-0.066 1.464,-0.275 2.781,-0.142 -0.266,-0.309 -0.609,-0.532 -0.97,-0.694 0.655,-0.155 1.462,-0.478 1.866,-1.149 -0.317,-0.161 -0.662,-0.266 -1.005,-0.333 0.63,-0.548 0.875,-1.369 1.414,-1.701 -0.698,-0.193 -1.274,-0.139 -1.727,0.015 0.219,-0.448 0.558,-0.97 1.024,-1.208 -0.634,-0.285 -1.251,-0.448 -1.727,-0.54 0.149,-0.249 0.368,-0.557 0.635,-0.76 -0.492,-0.018 -0.887,-0.155 -1.117,-0.257 -0.041,-0.575 -0.199,-1.768 1.258,-3.307 1.943,-1.469 2.427,-2.581 0.896,-4.555 0,-1.001 0.167,-1.404 0.686,-2.425 -0.045,-0.1 -0.257,-0.581 -0.469,-1.168 -0.233,-0.644 -0.407,-1.352 -0.407,-1.974 0,0 -0.329,0.002 -0.329,-0.348 l 0,-0.532 c -0.604,-0.189 -1.218,-0.196 -1.577,-0.022 m -7.558,12.958 c -0.281,0.278 -0.284,0.872 -0.282,0.979 0.04,0.02 0.077,0.047 0.111,0.081 0.176,0.175 0.176,0.46 0,0.636 -0.027,0.026 -0.056,0.049 -0.087,0.067 0.254,0.748 0.748,1.136 0.947,2.197 l 0.774,0 1.839,-1.442 c -0.328,-0.37 -0.6,-0.803 -0.726,-1.353 l -0.979,1.822 c -0.628,0 -1.013,-0.52 -0.688,-1.296 l -0.237,-0.238 0.364,-0.385 c -0.272,-0.54 -0.637,-0.916 -1.036,-1.068 m 2.882,-8.442 2.606,0 c 0,1.074 -0.798,1.779 -0.798,3.035 0,0.821 0.323,1.337 1.18,1.584 0.215,-0.194 0.407,-0.442 0.566,-0.78 0.007,-1.1 0.191,-1.855 0.454,-2.401 0,0 -0.592,-0.451 -0.592,-2.109 0,0 -2.351,0.108 -2.633,-0.199 l -0.37,0 0,-0.531 c -0.579,-0.19 -1.118,-0.197 -1.503,-0.019 0,0.472 0.506,0.901 0.506,0.901 0.052,-0.002 0.096,-0.009 0.141,-0.009 0.249,0 0.45,0.201 0.45,0.45 0,0.027 -0.002,0.053 -0.007,0.078 m -5.832,-9.903 c -0.608,0.442 -0.836,1.209 -0.251,1.505 0.04,0.103 0,0.224 -0.092,0.284 -0.648,-0.104 -0.914,0.65 -0.681,1.365 0.232,0.715 0.891,1.169 1.353,0.704 0.111,-0.006 0.213,0.069 0.242,0.175 -0.299,0.584 0.335,1.071 1.088,1.071 0.752,0 1.387,-0.487 1.087,-1.071 0.029,-0.106 0.132,-0.181 0.242,-0.175 0.462,0.465 1.121,0.011 1.353,-0.704 0.233,-0.715 -0.034,-1.469 -0.681,-1.365 -0.093,-0.06 -0.132,-0.181 -0.092,-0.284 0.585,-0.296 0.357,-1.063 -0.251,-1.505 -0.609,-0.442 -1.408,-0.422 -1.509,0.226 -0.086,0.07 -0.213,0.07 -0.299,0 -0.101,-0.648 -0.901,-0.668 -1.509,-0.226 m 3.107,2.282 c 0,-0.8 -0.649,-1.448 -1.449,-1.448 -0.8,0 -1.448,0.648 -1.448,1.448 0,0.8 0.648,1.449 1.448,1.449 0.8,0 1.449,-0.649 1.449,-1.449"
           id="path2596"
           style="fill:#e2001a;fill-opacity:1;fill-rule:evenodd;stroke:none" /></g></g></g></svg>